<?xml version="1.0" encoding="UTF-8" standalone="no"?>
<!DOCTYPE svg PUBLIC "-//W3C//DTD SVG 1.1//EN"
 "http://www.w3.org/Graphics/SVG/1.1/DTD/svg11.dtd">
<!-- Generated by graphviz version 3.0.0 (20220226.1711)
 -->
<!-- Title: dependencies Pages: 1 -->
<svg width="1430pt" height="250pt"
 viewBox="0.00 0.00 1430.00 249.80" xmlns="http://www.w3.org/2000/svg" xmlns:xlink="http://www.w3.org/1999/xlink">
<g id="graph0" class="graph" transform="scale(1 1) rotate(0) translate(4 245.8)">
<title>dependencies</title>
<polygon fill="white" stroke="transparent" points="-4,4 -4,-245.8 1426,-245.8 1426,4 -4,4"/>
<text text-anchor="middle" x="711" y="-8.2" font-family="sans-serif" font-size="14.00">dependencies</text>
<g id="clust1" class="cluster">
<title>cluster_AppModule</title>
<polygon fill="none" stroke="black" stroke-dasharray="1,5" points="626,-32.8 626,-233.8 1116,-233.8 1116,-32.8 626,-32.8"/>
</g>
<g id="clust3" class="cluster">
<title>cluster_AppModule_imports</title>
<polygon fill="none" stroke="black" points="772,-40.8 772,-168.8 1096,-168.8 1096,-40.8 772,-40.8"/>
</g>
<g id="clust6" class="cluster">
<title>cluster_AppModule_providers</title>
<polygon fill="none" stroke="black" points="634,-116.8 634,-168.8 764,-168.8 764,-116.8 634,-116.8"/>
</g>
<g id="clust7" class="cluster">
<title>cluster_AuthModule</title>
<polygon fill="none" stroke="black" stroke-dasharray="1,5" points="8,-32.8 8,-100.8 290,-100.8 290,-32.8 8,-32.8"/>
</g>
<g id="clust12" class="cluster">
<title>cluster_AuthModule_providers</title>
<polygon fill="none" stroke="black" points="16,-40.8 16,-92.8 282,-92.8 282,-40.8 16,-40.8"/>
</g>
<g id="clust13" class="cluster">
<title>cluster_PrismaModule</title>
<polygon fill="none" stroke="black" stroke-dasharray="1,5" points="1124,-108.8 1124,-176.8 1414,-176.8 1414,-108.8 1124,-108.8"/>
</g>
<g id="clust16" class="cluster">
<title>cluster_PrismaModule_exports</title>
<polygon fill="none" stroke="black" points="1290,-116.8 1290,-168.8 1406,-168.8 1406,-116.8 1290,-116.8"/>
</g>
<g id="clust18" class="cluster">
<title>cluster_PrismaModule_providers</title>
<polygon fill="none" stroke="black" points="1132,-116.8 1132,-168.8 1282,-168.8 1282,-116.8 1132,-116.8"/>
</g>
<g id="clust19" class="cluster">
<title>cluster_ProfileModule</title>
<polygon fill="none" stroke="black" stroke-dasharray="1,5" points="298,-32.8 298,-100.8 462,-100.8 462,-32.8 298,-32.8"/>
</g>
<g id="clust24" class="cluster">
<title>cluster_ProfileModule_providers</title>
<polygon fill="none" stroke="black" points="306,-40.8 306,-92.8 454,-92.8 454,-40.8 306,-40.8"/>
</g>
<g id="clust25" class="cluster">
<title>cluster_UserModule</title>
<polygon fill="none" stroke="black" stroke-dasharray="1,5" points="470,-32.8 470,-100.8 618,-100.8 618,-32.8 470,-32.8"/>
</g>
<g id="clust30" class="cluster">
<title>cluster_UserModule_providers</title>
<polygon fill="none" stroke="black" points="478,-40.8 478,-92.8 610,-92.8 610,-40.8 478,-40.8"/>
</g>
<!-- AuthModule -->
<g id="node1" class="node">
<title>AuthModule</title>
<polygon fill="#8dd3c7" stroke="black" points="867.55,-160.8 864.55,-164.8 843.55,-164.8 840.55,-160.8 780.45,-160.8 780.45,-124.8 867.55,-124.8 867.55,-160.8"/>
<text text-anchor="middle" x="824" y="-138.6" font-family="Times,serif" font-size="14.00">AuthModule</text>
</g>
<!-- AppModule -->
<g id="node5" class="node">
<title>AppModule</title>
<polygon fill="#8dd3c7" stroke="black" points="976.66,-225.8 973.66,-229.8 952.66,-229.8 949.66,-225.8 893.34,-225.8 893.34,-189.8 976.66,-189.8 976.66,-225.8"/>
<text text-anchor="middle" x="935" y="-203.6" font-family="Times,serif" font-size="14.00">AppModule</text>
</g>
<!-- AuthModule&#45;&gt;AppModule -->
<g id="edge1" class="edge">
<title>AuthModule&#45;&gt;AppModule</title>
<path fill="none" stroke="black" d="M824,-160.82C824,-178.17 824,-201.8 824,-201.8 824,-201.8 883.04,-201.8 883.04,-201.8"/>
<polygon fill="black" stroke="black" points="883.04,-205.3 893.04,-201.8 883.04,-198.3 883.04,-205.3"/>
</g>
<!-- PrismaModule -->
<g id="node2" class="node">
<title>PrismaModule</title>
<polygon fill="#8dd3c7" stroke="black" points="1088.44,-84.8 1085.44,-88.8 1064.44,-88.8 1061.44,-84.8 989.56,-84.8 989.56,-48.8 1088.44,-48.8 1088.44,-84.8"/>
<text text-anchor="middle" x="1039" y="-62.6" font-family="Times,serif" font-size="14.00">PrismaModule</text>
</g>
<!-- PrismaModule&#45;&gt;AuthModule -->
<g id="edge6" class="edge">
<title>PrismaModule&#45;&gt;AuthModule</title>
<path fill="none" stroke="black" d="M989.77,-66.8C932.56,-66.8 845.89,-66.8 845.89,-66.8 845.89,-66.8 845.89,-114.79 845.89,-114.79"/>
<polygon fill="black" stroke="black" points="842.39,-114.79 845.89,-124.79 849.39,-114.79 842.39,-114.79"/>
</g>
<!-- ProfileModule -->
<g id="node3" class="node">
<title>ProfileModule</title>
<polygon fill="#8dd3c7" stroke="black" points="983.66,-160.8 980.66,-164.8 959.66,-164.8 956.66,-160.8 886.34,-160.8 886.34,-124.8 983.66,-124.8 983.66,-160.8"/>
<text text-anchor="middle" x="935" y="-138.6" font-family="Times,serif" font-size="14.00">ProfileModule</text>
</g>
<!-- PrismaModule&#45;&gt;ProfileModule -->
<g id="edge11" class="edge">
<title>PrismaModule&#45;&gt;ProfileModule</title>
<path fill="none" stroke="black" d="M993.86,-84.81C993.86,-107.29 993.86,-142.8 993.86,-142.8 993.86,-142.8 992.86,-142.8 992.86,-142.8"/>
<polygon fill="black" stroke="black" points="993.87,-139.3 983.87,-142.8 993.87,-146.3 993.87,-139.3"/>
</g>
<!-- UserModule -->
<g id="node4" class="node">
<title>UserModule</title>
<polygon fill="#8dd3c7" stroke="black" points="1087.99,-160.8 1084.99,-164.8 1063.99,-164.8 1060.99,-160.8 1002.01,-160.8 1002.01,-124.8 1087.99,-124.8 1087.99,-160.8"/>
<text text-anchor="middle" x="1045" y="-138.6" font-family="Times,serif" font-size="14.00">UserModule</text>
</g>
<!-- PrismaModule&#45;&gt;UserModule -->
<g id="edge13" class="edge">
<title>PrismaModule&#45;&gt;UserModule</title>
<path fill="none" stroke="black" d="M1059.33,-84.81C1059.33,-84.81 1059.33,-114.65 1059.33,-114.65"/>
<polygon fill="black" stroke="black" points="1055.83,-114.65 1059.33,-124.65 1062.83,-114.65 1055.83,-114.65"/>
</g>
<!-- PrismaModule&#45;&gt;AppModule -->
<g id="edge2" class="edge">
<title>PrismaModule&#45;&gt;AppModule</title>
<path fill="none" stroke="black" d="M997.93,-85.01C997.93,-121.86 997.93,-201.8 997.93,-201.8 997.93,-201.8 986.98,-201.8 986.98,-201.8"/>
<polygon fill="black" stroke="black" points="986.98,-198.3 976.98,-201.8 986.98,-205.3 986.98,-198.3"/>
</g>
<!-- PrismaService  -->
<g id="node9" class="node">
<title>PrismaService </title>
<polygon fill="#fb8072" stroke="black" points="1398.37,-160.8 1297.63,-160.8 1297.63,-124.8 1398.37,-124.8 1398.37,-160.8"/>
<text text-anchor="middle" x="1348" y="-138.6" font-family="Times,serif" font-size="14.00">PrismaService </text>
</g>
<!-- PrismaModule&#45;&gt;PrismaService  -->
<g id="edge9" class="edge">
<title>PrismaModule&#45;&gt;PrismaService </title>
<path fill="none" stroke="black" stroke-dasharray="5,2" d="M1088.3,-60.8C1175.54,-60.8 1348,-60.8 1348,-60.8 1348,-60.8 1348,-114.6 1348,-114.6"/>
<polygon fill="black" stroke="black" points="1344.5,-114.6 1348,-124.6 1351.5,-114.6 1344.5,-114.6"/>
</g>
<!-- ProfileModule&#45;&gt;AppModule -->
<g id="edge3" class="edge">
<title>ProfileModule&#45;&gt;AppModule</title>
<path fill="none" stroke="black" d="M935,-160.91C935,-160.91 935,-179.79 935,-179.79"/>
<polygon fill="black" stroke="black" points="931.5,-179.79 935,-189.79 938.5,-179.79 931.5,-179.79"/>
</g>
<!-- UserModule&#45;&gt;AppModule -->
<g id="edge4" class="edge">
<title>UserModule&#45;&gt;AppModule</title>
<path fill="none" stroke="black" d="M1045,-161.08C1045,-182.12 1045,-213.8 1045,-213.8 1045,-213.8 986.9,-213.8 986.9,-213.8"/>
<polygon fill="black" stroke="black" points="986.9,-210.3 976.9,-213.8 986.9,-217.3 986.9,-210.3"/>
</g>
<!-- AppService -->
<g id="node6" class="node">
<title>AppService</title>
<ellipse fill="#fdb462" stroke="black" cx="699" cy="-142.8" rx="56.75" ry="18"/>
<text text-anchor="middle" x="699" y="-138.6" font-family="Times,serif" font-size="14.00">AppService</text>
</g>
<!-- AppService&#45;&gt;AppModule -->
<g id="edge5" class="edge">
<title>AppService&#45;&gt;AppModule</title>
<path fill="none" stroke="black" d="M699,-161.08C699,-182.12 699,-213.8 699,-213.8 699,-213.8 883.08,-213.8 883.08,-213.8"/>
<polygon fill="black" stroke="black" points="883.08,-217.3 893.08,-213.8 883.08,-210.3 883.08,-217.3"/>
</g>
<!-- AuthService -->
<g id="node7" class="node">
<title>AuthService</title>
<ellipse fill="#fdb462" stroke="black" cx="215" cy="-66.8" rx="59.11" ry="18"/>
<text text-anchor="middle" x="215" y="-62.6" font-family="Times,serif" font-size="14.00">AuthService</text>
</g>
<!-- AuthService&#45;&gt;AuthModule -->
<g id="edge7" class="edge">
<title>AuthService&#45;&gt;AuthModule</title>
<path fill="none" stroke="black" d="M215,-84.86C215,-96.24 215,-108.8 215,-108.8 215,-108.8 824,-108.8 824,-108.8 824,-108.8 824,-114.61 824,-114.61"/>
<polygon fill="black" stroke="black" points="820.5,-114.61 824,-124.61 827.5,-114.61 820.5,-114.61"/>
</g>
<!-- JwtStrategy -->
<g id="node8" class="node">
<title>JwtStrategy</title>
<ellipse fill="#fdb462" stroke="black" cx="81" cy="-66.8" rx="56.77" ry="18"/>
<text text-anchor="middle" x="81" y="-62.6" font-family="Times,serif" font-size="14.00">JwtStrategy</text>
</g>
<!-- JwtStrategy&#45;&gt;AuthModule -->
<g id="edge8" class="edge">
<title>JwtStrategy&#45;&gt;AuthModule</title>
<path fill="none" stroke="black" d="M81,-84.85C81,-99.17 81,-116.8 81,-116.8 81,-116.8 802.11,-116.8 802.11,-116.8 802.11,-116.8 802.11,-117.59 802.11,-117.59"/>
<polygon fill="black" stroke="black" points="798.61,-114.74 802.11,-124.74 805.61,-114.74 798.61,-114.74"/>
</g>
<!-- PrismaService -->
<g id="node10" class="node">
<title>PrismaService</title>
<ellipse fill="#fdb462" stroke="black" cx="1207" cy="-142.8" rx="66.64" ry="18"/>
<text text-anchor="middle" x="1207" y="-138.6" font-family="Times,serif" font-size="14.00">PrismaService</text>
</g>
<!-- PrismaService&#45;&gt;PrismaModule -->
<g id="edge10" class="edge">
<title>PrismaService&#45;&gt;PrismaModule</title>
<path fill="none" stroke="black" d="M1207,-124.77C1207,-104.03 1207,-72.8 1207,-72.8 1207,-72.8 1098.5,-72.8 1098.5,-72.8"/>
<polygon fill="black" stroke="black" points="1098.5,-69.3 1088.5,-72.8 1098.5,-76.3 1098.5,-69.3"/>
</g>
<!-- ProfileService -->
<g id="node11" class="node">
<title>ProfileService</title>
<ellipse fill="#fdb462" stroke="black" cx="380" cy="-66.8" rx="66.05" ry="18"/>
<text text-anchor="middle" x="380" y="-62.6" font-family="Times,serif" font-size="14.00">ProfileService</text>
</g>
<!-- ProfileService&#45;&gt;ProfileModule -->
<g id="edge12" class="edge">
<title>ProfileService&#45;&gt;ProfileModule</title>
<path fill="none" stroke="black" d="M380,-84.99C380,-93.08 380,-100.8 380,-100.8 380,-100.8 935,-100.8 935,-100.8 935,-100.8 935,-114.74 935,-114.74"/>
<polygon fill="black" stroke="black" points="931.5,-114.74 935,-124.74 938.5,-114.74 931.5,-114.74"/>
</g>
<!-- UserService -->
<g id="node12" class="node">
<title>UserService</title>
<ellipse fill="#fdb462" stroke="black" cx="544" cy="-66.8" rx="58.46" ry="18"/>
<text text-anchor="middle" x="544" y="-62.6" font-family="Times,serif" font-size="14.00">UserService</text>
</g>
<!-- UserService&#45;&gt;UserModule -->
<g id="edge14" class="edge">
<title>UserService&#45;&gt;UserModule</title>
<path fill="none" stroke="black" d="M544,-84.86C544,-89.29 544,-92.8 544,-92.8 544,-92.8 1030.67,-92.8 1030.67,-92.8 1030.67,-92.8 1030.67,-114.75 1030.67,-114.75"/>
<polygon fill="black" stroke="black" points="1027.17,-114.75 1030.67,-124.75 1034.17,-114.75 1027.17,-114.75"/>
</g>
</g>
</svg>
